<svg width="33" height="90" viewBox="0 0 33 90" fill="none" xmlns="http://www.w3.org/2000/svg">
<path d="M32.6344 52.6226C31.8939 49.6177 30.6599 46.5627 28.4056 44.3842C26.6861 42.7148 24.5553 41.8801 22.2352 41.4961C20.927 41.2791 19.512 41.3125 18.1298 41.5879L16.8957 33.6166L21.7086 28.525C23.568 26.4133 24.8432 24.4684 26.0526 21.8559C27.1962 19.3852 27.8297 16.6641 27.8955 13.9346C27.9531 11.4473 27.7474 8.93484 27.1468 6.52259C26.8424 5.31229 26.4311 4.12703 25.8963 3.00019C25.4685 2.10707 24.7856 0.504468 23.8642 0.0704285C22.8851 -0.388651 20.9435 1.52279 20.2277 2.15716C14.9541 6.83142 13.1605 13.1417 13.5801 20.0028C13.7282 22.3483 14.3206 25.3031 14.6826 27.6236L10.7253 31.6635C10.7253 31.6635 1.6671 39.4678 0.243787 48.4241C-1.17952 57.3719 4.09413 63.1397 4.09413 63.1397C5.47631 64.5586 6.45535 65.6938 8.10079 66.7872C11.7619 69.2079 16.8463 69.2663 21.0258 68.7571C21.9061 74.4747 22.5149 78.3894 22.5149 78.3894C22.6136 79.0489 22.5396 79.8001 22.4902 80.4678C22.4409 81.1105 22.3421 81.7449 22.194 82.3626C21.9225 83.4811 21.47 84.5495 20.7954 85.476C19.9645 86.6195 19.0595 87.5711 17.8089 88.1887C16.509 88.8231 14.8224 89.1737 13.358 88.9984C13.0783 88.965 12.7985 88.9066 12.527 88.8314C12.2802 88.7647 11.8771 88.6979 11.6796 88.5309C11.6796 88.5309 10.5936 87.6295 12.0416 87.5126C12.9137 87.5126 13.72 87.2288 14.4029 86.7364C14.7566 86.4943 14.9376 86.294 14.9376 86.294C15.892 85.3675 16.5008 83.9902 16.5008 82.446C16.5008 79.6498 14.5016 77.3795 12.0416 77.3795C7.08884 77.1458 6.05221 82.3375 6.05221 82.3459C5.8054 83.5896 6.07689 84.9668 6.61989 86.0853C6.89962 86.6779 7.26984 87.2205 7.69766 87.7046C9.3431 89.5827 11.91 90 14.2712 90C15.9249 90 17.5786 89.5826 19.0101 88.7563C22.375 86.8031 24.0369 83.1889 23.7984 78.2893L22.2928 68.5568C23.1155 68.3982 23.9218 68.1645 24.654 67.8306C30.5035 65.1763 34.2305 59.1081 32.6262 52.6309L32.6344 52.6226ZM15.53 24.1679C15.53 24.1679 15.53 24.1346 15.53 24.1262C15.4642 23.2832 15.4313 22.4318 15.4559 21.5804C15.5053 19.8359 15.7933 18.1081 16.3774 16.4638C17.4881 13.3671 18.7386 10.2787 20.8283 7.71619C21.7251 6.6144 22.8275 5.70459 23.9793 4.87825C24.185 4.728 24.3331 4.66957 24.5799 4.63619C25.8058 4.45255 25.9621 9.27707 26.0032 9.97821C26.2994 14.7276 21.503 20.6706 21.503 20.6706L15.8097 26.48C15.9578 26.3381 15.5793 24.5769 15.53 24.1679ZM17.9323 67.7889C15.0939 67.8139 12.3872 66.9458 10.0424 65.0761C7.67298 63.1897 5.97817 60.5438 5.14722 57.614C3.93781 53.3571 4.57954 48.6912 6.82557 44.9017C7.31921 44.067 7.92802 43.3074 8.48747 42.5144C9.65574 40.8951 11.0955 39.5096 12.4859 38.0906C13.6213 36.922 14.6908 35.9538 15.785 34.7518C16.1306 37.0138 16.4761 39.2341 16.8875 41.9051C15.1844 42.4393 13.613 43.3658 12.4695 44.6763C10.0013 47.5142 7.82929 51.2286 8.61088 55.16C9.25261 58.3903 11.4246 60.3601 14.0244 62.0796C14.5921 62.4552 15.3078 62.8141 16.0072 62.764C16.1306 62.7557 16.254 62.6973 16.3033 62.5804C16.4021 62.3801 16.2046 62.0546 16.0648 61.9127C15.7028 61.5704 15.4395 61.4619 15.0363 61.1948C14.156 60.6022 13.5801 59.659 13.0618 58.7492C12.3543 57.5222 12.2885 55.978 12.3872 54.559C12.7245 49.9348 16.2704 48.4074 17.8254 47.9566C18.8785 54.7594 19.9727 61.8459 20.8365 67.4717C19.8575 67.6804 18.8867 67.7889 17.9323 67.7972V67.7889ZM28.8746 58.5238C28.7676 60.285 28.2986 62.0045 27.3854 63.4652C26.7848 64.4251 26.0279 65.2765 25.1312 65.9609C24.2097 66.6704 23.1978 66.8958 22.0871 67.1796L19.0841 47.7396C23.2718 47.4976 26.9082 49.3339 28.2328 53.5157C28.7347 55.0849 28.965 56.821 28.8581 58.5238H28.8746Z" fill="#283350"/>
</svg>
