<?xml version="1.0" encoding="UTF-8"?>
<svg id="_レイヤー_2" data-name="レイヤー 2" xmlns="http://www.w3.org/2000/svg" viewBox="0 0 106.68 107.82">
  <defs>
    <style>
      .cls-1 {
        fill: none;
        stroke: #231815;
        stroke-miterlimit: 10;
        stroke-width: 2px;
      }

      .cls-2 {
        fill: #231815;
        stroke-width: 0px;
      }
    </style>
  </defs>
  <g id="_レイヤー_1-2" data-name="レイヤー 1">
    <g>
      <g>
        <line class="cls-1" y1="18.73" x2="106.68" y2="18.73"/>
        <line class="cls-1" y1="34.73" x2="106.68" y2="34.73"/>
        <line class="cls-1" y1="50.73" x2="106.68" y2="50.73"/>
        <line class="cls-1" y1="66.72" x2="106.68" y2="66.72"/>
        <line class="cls-1" y1="82.72" x2="106.68" y2="82.72"/>
      </g>
      <path class="cls-2" d="M46.55,63.05c-.9-3.6-2.4-7.26-5.14-9.87-2.09-2-4.68-3-7.5-3.46-1.59-.26-3.31-.22-4.99.11l-1.5-9.55,5.85-6.1c2.26-2.53,3.81-4.86,5.28-7.99,1.39-2.96,2.16-6.22,2.24-9.49.07-2.98-.18-5.99-.91-8.88-.37-1.45-.87-2.87-1.52-4.22-.52-1.07-1.35-2.99-2.47-3.51-1.19-.55-3.55,1.74-4.42,2.5-6.41,5.6-8.59,13.16-8.08,21.38.18,2.81.9,6.35,1.34,9.13l-4.81,4.84s-11.01,9.36-12.74,20.08c-1.73,10.72,4.68,17.63,4.68,17.63,1.68,1.7,2.87,3.06,4.87,4.37,4.45,2.9,10.63,2.97,15.71,2.36,1.07,6.85,1.81,11.54,1.81,11.54.12.79.03,1.69-.03,2.49-.06.77-.18,1.53-.36,2.27-.33,1.34-.88,2.62-1.7,3.73-1.01,1.37-2.11,2.51-3.63,3.25-1.58.76-3.63,1.18-5.41.97-.34-.04-.68-.11-1.01-.2-.3-.08-.79-.16-1.03-.36,0,0-1.32-1.08.44-1.22,1.06,0,2.04-.34,2.87-.93.43-.29.65-.53.65-.53,1.16-1.11,1.9-2.76,1.9-4.61,0-3.35-2.43-6.07-5.42-6.07-6.02-.28-7.28,5.94-7.28,5.95-.3,1.49.03,3.14.69,4.48.34.71.79,1.36,1.31,1.94,2,2.25,5.12,2.75,7.99,2.75,2.01,0,4.02-.5,5.76-1.49,4.09-2.34,6.11-6.67,5.82-12.54l-1.83-11.66c1-.19,1.98-.47,2.87-.87,7.11-3.18,11.64-10.45,9.69-18.21ZM25.76,28.96s0-.04,0-.05c-.08-1.01-.12-2.03-.09-3.05.06-2.09.41-4.16,1.12-6.13,1.35-3.71,2.87-7.41,5.41-10.48,1.09-1.32,2.43-2.41,3.83-3.4.25-.18.43-.25.73-.29,1.49-.22,1.68,5.56,1.73,6.4.36,5.69-5.47,12.81-5.47,12.81,0,0-6.92,6.96-6.92,6.96.18-.17-.28-2.28-.34-2.77ZM28.68,81.22c-3.45.03-6.74-1.01-9.59-3.25-2.88-2.26-4.94-5.43-5.95-8.94-1.47-5.1-.69-10.69,2.04-15.23.6-1,1.34-1.91,2.02-2.86,1.42-1.94,3.17-3.6,4.86-5.3,1.38-1.4,2.68-2.56,4.01-4,.42,2.71.84,5.37,1.34,8.57-2.07.64-3.98,1.75-5.37,3.32-3,3.4-5.64,7.85-4.69,12.56.78,3.87,3.42,6.23,6.58,8.29.69.45,1.56.88,2.41.82.15-.01.3-.08.36-.22.12-.24-.12-.63-.29-.8-.44-.41-.76-.54-1.25-.86-1.07-.71-1.77-1.84-2.4-2.93-.86-1.47-.94-3.32-.82-5.02.41-5.54,4.72-7.37,6.61-7.91,1.28,8.15,2.61,16.64,3.66,23.38-1.19.25-2.37.38-3.53.39ZM41.98,70.12c-.13,2.11-.7,4.17-1.81,5.92-.73,1.15-1.65,2.17-2.74,2.99-1.12.85-2.35,1.12-3.7,1.46,0,0-3.65-23.29-3.65-23.29,5.09-.29,9.51,1.91,11.12,6.92.61,1.88.89,3.96.76,6Z"/>
      <path class="cls-2" d="M83.71,58.89c2.51,3.3.98,8.69-3.43,12.05-4.41,3.36-10.02,3.41-12.53.11-2.51-3.3-.98-8.69,3.43-12.05,4.41-3.36,10.02-3.41,12.53-.11Z"/>
    </g>
  </g>
</svg>