<svg width="49" height="57" viewBox="0 0 49 57" fill="none" xmlns="http://www.w3.org/2000/svg">
<path d="M48.2673 8.78991C48.2673 10.7131 46.7131 12.2673 44.7899 12.2673C42.8667 12.2673 41.3125 10.7131 41.3125 8.78991C41.3125 6.86671 42.8667 5.3125 44.7899 5.3125C46.7131 5.3125 48.2673 6.86671 48.2673 8.78991Z" fill="#283350"/>
<path d="M48.2673 25.329C48.2673 27.2522 46.7131 28.8064 44.7899 28.8064C42.8667 28.8064 41.3125 27.2522 41.3125 25.329C41.3125 23.4058 42.8667 21.8516 44.7899 21.8516C46.7131 21.8516 48.2673 23.4058 48.2673 25.329Z" fill="#283350"/>
<path d="M36.5497 18.0115C36.2143 14.0085 35.5769 10.3746 33.2624 6.97545C30.9143 3.53158 27.5151 1.35121 23.4563 0.445521C21.0747 -0.0911853 18.5812 -0.147092 16.1884 0.300163C11.0338 1.26176 5.7338 4.69445 3.86651 9.72607C2.849 12.4543 2.849 15.9765 3.77706 18.7495C3.8106 18.8724 3.84415 18.9843 3.88887 19.1073C3.88887 19.1408 3.91124 19.1632 3.92242 19.1967C4.05659 19.5769 4.22431 19.957 4.42558 20.3148C5.65553 22.484 7.97008 23.9488 10.6424 23.9488C14.5895 23.9488 17.7762 20.7509 17.7762 16.8151C17.7762 12.8792 14.5783 9.68135 10.6424 9.68135C9.7591 9.68135 8.95404 9.82671 8.14898 10.1398C8.01481 10.1845 7.89181 10.2404 7.75763 10.2963C7.74645 10.2963 7.72409 10.3075 7.71291 10.3187C6.75131 10.7548 6.8184 9.24527 7.19856 8.40667C7.98126 6.7071 9.2224 5.21997 10.7766 4.16892C13.5608 2.30163 17.7426 1.79847 20.8734 3.08433C24.2949 4.49318 26.6095 8.12714 27.6605 11.5598C27.6605 11.5598 31.6634 24.5414 23.5569 38.1044C15.4504 51.6675 0.914624 55.3797 0.914624 55.3797C0.500913 55.5027 0.0760202 55.6816 0.00893188 56.1736C-0.0693378 56.7438 0.377918 57.1352 0.914624 56.9563C9.26712 54.228 17.5973 49.9343 24.3844 44.243C29.9974 39.5357 34.3134 33.3412 35.6887 26.0621C36.1919 23.4121 36.7733 20.7062 36.5609 18.0227L36.5497 18.0115Z" fill="#283350"/>
</svg>
