<?xml version="1.0" encoding="UTF-8"?>
<svg id="_レイヤー_2" data-name="レイヤー 2" xmlns="http://www.w3.org/2000/svg" viewBox="0 0 106.68 65.99">
  <defs>
    <style>
      .cls-1 {
        fill: none;
        stroke: #231815;
        stroke-miterlimit: 10;
        stroke-width: 2px;
      }

      .cls-2 {
        fill: #231815;
        stroke-width: 0px;
      }
    </style>
  </defs>
  <g id="_レイヤー_1-2" data-name="レイヤー 1">
    <g>
      <g>
        <line class="cls-1" y1="1" x2="106.68" y2="1"/>
        <line class="cls-1" y1="17" x2="106.68" y2="17"/>
        <line class="cls-1" y1="32.99" x2="106.68" y2="32.99"/>
        <line class="cls-1" y1="48.99" x2="106.68" y2="48.99"/>
        <line class="cls-1" y1="64.99" x2="106.68" y2="64.99"/>
      </g>
      <g>
        <path class="cls-2" d="M48.53,8.86c0,1.72-1.39,3.11-3.11,3.11s-3.11-1.39-3.11-3.11,1.39-3.11,3.11-3.11,3.11,1.39,3.11,3.11Z"/>
        <path class="cls-2" d="M48.53,23.65c0,1.72-1.39,3.11-3.11,3.11s-3.11-1.39-3.11-3.11,1.39-3.11,3.11-3.11,3.11,1.39,3.11,3.11Z"/>
        <path class="cls-2" d="M38.05,17.11c-.3-3.58-.87-6.83-2.94-9.87-2.1-3.08-5.14-5.03-8.77-5.84-2.13-.48-4.36-.53-6.5-.13-4.61.86-9.35,3.93-11.02,8.43-.91,2.44-.91,5.59-.08,8.07.03.11.06.21.1.32,0,.03.02.05.03.08.12.34.27.68.45,1,1.1,1.94,3.17,3.25,5.56,3.25,3.53,0,6.38-2.86,6.38-6.38s-2.86-6.38-6.38-6.38c-.79,0-1.51.13-2.23.41-.12.04-.24.09-.35.14-.01,0-.03.01-.04.02-.86.39-.8-.96-.46-1.71.7-1.52,1.81-2.85,3.2-3.79,2.49-1.67,6.23-2.12,9.03-.97,3.06,1.26,5.13,4.51,6.07,7.58,0,0,3.58,11.61-3.67,23.74-7.25,12.13-20.25,15.45-20.25,15.45-.37.11-.75.27-.81.71-.07.51.33.86.81.7,7.47-2.44,14.92-6.28,20.99-11.37,5.02-4.21,8.88-9.75,10.11-16.26.45-2.37.97-4.79.78-7.19Z"/>
      </g>
      <path class="cls-2" d="M85.44,26.09c2.51,3.3.98,8.69-3.43,12.05-4.41,3.36-10.02,3.41-12.53.11-2.51-3.3-.98-8.69,3.43-12.05,4.41-3.36,10.02-3.41,12.53-.11Z"/>
    </g>
  </g>
</svg>